<?xml version="1.0" encoding="utf-8"?>
<!-- Generator: Adobe Illustrator 23.1.0, SVG Export Plug-In . SVG Version: 6.00 Build 0)  -->
<svg version="1.1" id="Layer_1" xmlns="http://www.w3.org/2000/svg" xmlns:xlink="http://www.w3.org/1999/xlink" x="0px" y="0px"
	 viewBox="0 0 205 23" enable-background="new 0 0 205 23" xml:space="preserve">
<g>
	<defs>
		<rect id="SVGID_1_" y="0" width="204.4" height="23"/>
	</defs>
	<clipPath id="SVGID_2_">
		<use xlink:href="#SVGID_1_"  overflow="visible"/>
	</clipPath>
	<g clip-path="url(#SVGID_2_)">
		<path fill="#ED000C" d="M37.7,21.1c-19.4,6.2-21.5-6.5-33.7-3.4C22.2,6.7,22.8,24.1,37.7,21.1z"/>
		<path d="M144.9,2.5h-6.7l-7.5,14.2h-11.6l7.5-14.2h-7.1l1.1-2.1h26.3l-0.8,1.5c-0.1,0.2-0.3,0.3-0.5,0.5
			C145.4,2.5,145.2,2.5,144.9,2.5z M183.1,14.7c-1,0-1.4-0.3-1-1.2L189,0.4h-12.1l-5.3,10c-1.7,3.3,0.6,6.3,3.9,6.3H195
			c0.2,0,0.4-0.1,0.6-0.2c0.2-0.1,0.3-0.3,0.4-0.5l0.7-1.4L183.1,14.7z M56.7,0.4L50,13c-0.3,0.5-0.7,0.9-1.2,1.2
			c-0.5,0.3-1.1,0.5-1.7,0.5h-4.9c-1,0-1.3-0.4-0.9-1.2l6.9-13.1h-11l-5.3,10c-1.8,3.4-0.7,6.3,3.9,6.3h15c2,0,3.9-1.2,4.9-3.1
			l7-13.2L56.7,0.4z M11.3,12.5l4.3-8.2l0.1-0.3c0.7-1.4,1.7-2.2,3.4-2.2h3.3c1.5,0,1.8,0.9,1.2,2L19,12.8c2.1,0.7,3.9,1.8,5.6,2.9
			c0.5-0.4,0.9-0.9,1.2-1.5l4.3-8.1C31.9,2.9,30,0,25.8,0H12.4C10.7,0,9,0.4,7.5,1.3c-1.5,0.8-2.6,2-3.4,3.5l-3,5.7
			c-1.4,2.6-1,5,1.3,6L3,16.1C6,14.3,8.7,13.1,11.3,12.5z M159.4,4c0.6-1.1,1.3-1.5,2.9-1.5h8.4c0.2,0,0.4-0.1,0.6-0.2
			c0.2-0.1,0.3-0.3,0.4-0.4l0.7-1.5h-17.9c-1.7,0-3.3,0.4-4.7,1.3c-1.4,0.8-2.6,2-3.3,3.4l-2.8,5.4c-2,3.8-0.1,6.3,3.9,6.3h16.5
			c0.2,0,0.4-0.1,0.6-0.2c0.2-0.1,0.3-0.3,0.4-0.5l0.7-1.4h-10.9c-0.7,0-1.1-0.4-0.7-1.2l2.7-5.1h10.4c0.2,0,0.4-0.1,0.6-0.2
			c0.2-0.1,0.3-0.3,0.4-0.5l0.7-1.4h-11.1L159.4,4z M77,4c0.6-1.1,1.3-1.5,2.9-1.5h8.3c0.2,0,0.4-0.1,0.6-0.2
			c0.2-0.1,0.3-0.3,0.4-0.4l0.7-1.5H72.2c-1.7,0-3.3,0.5-4.7,1.3c-1.4,0.8-2.5,2-3.3,3.4l-2.8,5.4c-2,3.8-0.1,6.3,3.9,6.3h16.5
			c0.2,0,0.4-0.1,0.6-0.2c0.2-0.1,0.3-0.3,0.5-0.5l0.7-1.4H72.9c-0.9,0-1.3-0.4-0.9-1.2l2.7-5.1h10.4c0.2,0,0.4-0.1,0.6-0.2
			C86,8.1,86.1,8,86.2,7.8L87,6.4H75.8L77,4z M91.7,5.1l-2.8,5.4c-1.8,3.4-0.1,6.3,3.9,6.3h16.6c0.2,0,0.4-0.1,0.6-0.2
			c0.2-0.1,0.3-0.3,0.4-0.5l0.7-1.4h-10.8c-1,0-1.4-0.4-0.9-1.2l5-9.4c0.2-0.5,0.6-0.9,1.1-1.2c0.5-0.3,1.1-0.4,1.6-0.4h8.3
			c0.2,0,0.4-0.1,0.6-0.2c0.2-0.1,0.3-0.3,0.4-0.5l0.8-1.5H99.7c-1.7,0-3.3,0.4-4.7,1.2C93.5,2.5,92.4,3.7,91.7,5.1L91.7,5.1z"/>
	</g>
	<g clip-path="url(#SVGID_2_)">
		<path d="M200.9,1.3h-0.7V1.1h1.7v0.3h-0.7v2.1h-0.3V1.3z"/>
		<path d="M204.2,2.4c0-0.3,0-0.7,0-1h0c-0.1,0.3-0.2,0.6-0.3,0.9l-0.4,1.1h-0.2l-0.4-1.1c-0.1-0.3-0.2-0.6-0.3-0.9h0
			c0,0.3,0,0.7,0,1l-0.1,1h-0.3l0.2-2.3h0.4l0.4,1.1c0.1,0.3,0.2,0.5,0.2,0.8h0c0.1-0.2,0.1-0.5,0.2-0.8l0.4-1.1h0.4l0.1,2.3h-0.3
			L204.2,2.4z"/>
	</g>
</g>
</svg>
